<svg version="1.1" id="layers" xmlns="http://www.w3.org/2000/svg" xmlns:xlink="http://www.w3.org/1999/xlink" x="0px" y="0px"
	 width="479px" height="455px" viewBox="0 0 479 455" enable-background="new 0 0 479 455" xml:space="preserve">
            <style type="text/css">
                .stepone{
			    stroke-dasharray: 1000;
			    stroke-dashoffset: 1000;
			    animation: stepone 2s linear forwards;
			  }
			  @keyframes stepone {
			    from {stroke-dashoffset: 1000;}
			  	to {stroke-dashoffset: 0;}
			  }
			  #lineToCloudOne{
			    stroke-dasharray: 1000;
			    stroke-dashoffset: 1000;
			    animation: stepone 2s 4s linear forwards;
			  }
			  #lineToPad{
			    stroke-dasharray: 1000;
			    stroke-dashoffset: 1000;
			    animation: stepone 2s 4.5s linear forwards;
			  }
			  #lineToCloudTwo{
			    stroke-dasharray: 1000;
			    stroke-dashoffset: 1000;
			    animation: stepone 2s 5s linear forwards;
			  }
			  #lineToCloudThree{
			    stroke-dasharray: 1000;
			    stroke-dashoffset: 1000;
			    animation: stepone 2s 5.5s linear forwards;
			  }
			  #lineToNoteBook{
			    stroke-dasharray: 1000;
			    stroke-dashoffset: 1000;
			    animation: stepone 2s 6s linear forwards;
			  }
			  #lineToCloudFour{
			    stroke-dasharray: 1000;
			    stroke-dashoffset: 1000;
			    animation: stepone 2s 6.5s linear forwards;
			  }
            </style>
	 		<g id="wind">
				<g id="wind1" transform="translate(-80 0)">
					<path fill="#FFFFFF" d="M648.962,158.982h-9.469c-0.435,0-0.434-1.571,0-1.571h9.469c0.438,0,0.785,0.352,0.785,0.785
					C649.747,158.631,649.397,158.982,648.962,158.982z"/>
					<path fill="#FFFFFF" d="M662.675,168.407h-31.723c-0.435,0-0.785-0.352-0.785-0.786s0.353-0.785,0.785-0.785h31.723
					c0.438,0,0.785,0.352,0.785,0.785C663.46,168.056,663.111,168.407,662.675,168.407z"/>
					<path fill="#FFFFFF" d="M658.687,150.602h-38.39c-0.434,0-0.785-0.351-0.785-0.786c0-0.434,0.354-0.785,0.785-0.785h38.391
					c0.437,0,0.784,0.351,0.784,0.785C659.472,150.251,659.122,150.602,658.687,150.602z"/>
					<animateMotion  path="M0,0h-615.79H0z" begin="8s" dur="20s" repeatCount="indefinite"/>
				</g>

				<g id="wind5">
					<path fill="#FFFFFF" d="M-181.346,271.745h-9.467c-0.434,0-0.786-0.353-0.786-0.785c0-0.434,0.352-0.786,0.786-0.786h9.467
					c0.436,0,0.787,0.353,0.787,0.786C-180.559,271.393-180.91,271.745-181.346,271.745z"/>
					<path fill="#FFFFFF" d="M-167.627,281.171h-31.728c-0.432,0-0.785-0.352-0.785-0.786s0.353-0.785,0.785-0.785h31.728
					c0.432,0,0.785,0.351,0.785,0.785C-166.843,280.819-167.195,281.171-167.627,281.171z"/>
					<path fill="#FFFFFF" d="M-171.618,263.366h-38.391c-0.434,0-0.785-0.353-0.785-0.787c0-0.434,0.352-0.784,0.785-0.784h38.391
					c0.434,0,0.786,0.352,0.786,0.784C-170.832,263.014-171.184,263.366-171.618,263.366z"/>
					<animateMotion  path="M2.451,1.419h744.078H2.451z" begin="8s" dur="20s" repeatCount="indefinite"/>
				</g>

                <!-- <animate attributeName="fill"
                                    begin="7.5s" dur=".5s"  from="rgba(255,255,255,0)" to="rgba(255,255,255,1)"
                                    fill="freeze"/> -->
			<g id="setting" fill="none">
				<path d="M181.273,286.729l17.335-3.695c3.513-0.751,5.76-4.214,4.994-7.7l-3.237-15.072
					c-0.749-3.51,1.223-7.789,4.384-9.463l19.173-13.239c2.715-2.351,7.41-2.646,10.404-0.705l12.941,8.396
					c2.995,1.939,7.06,1.095,9.006-1.899l9.645-14.873c1.942-2.996,1.053-7.055-1.941-8.997l-12.941-8.393
					c-2.994-1.942-4.642-6.349-3.617-9.762l4.299-22.95c0.291-3.539,3.31-7.068,6.82-7.814l15.098-3.218
					c3.51-0.747,5.756-4.212,4.992-7.699l-3.698-17.339c-0.748-3.51-4.188-5.742-7.698-4.992l-15.1,3.219
					c-3.501,0.75-7.744-1.228-9.438-4.365l-13.244-19.208c-2.323-2.703-2.638-7.372-0.697-10.367l8.412-12.968
					c1.924-2.972,1.082-7.038-1.914-8.979L220.375,75c-2.993-1.94-7.05-1.054-8.977,1.914l-8.413,12.969
					c-1.939,2.996-6.325,4.618-9.747,3.594l-22.966-4.275c-3.553-0.268-7.084-3.33-7.809-6.82l-3.22-15.098
					c-0.749-3.511-4.208-5.756-7.693-4.991l-17.36,3.719c-3.479,0.697-5.727,4.163-4.976,7.672l3.219,15.097
					c0.749,3.51-1.233,7.71-4.349,9.419l-19.227,13.267c-2.703,2.324-7.366,2.64-10.367,0.694l-12.968-8.411
					c-2.996-1.939-7.029-1.076-8.974,1.918l-9.645,14.874c-1.942,2.996-1.085,7.033,1.91,8.975l12.966,8.411
					c2.999,1.945,4.614,6.331,3.58,9.773l-4.24,22.92c-0.323,3.588-3.348,7.112-6.858,7.858l-15.082,3.194
					c-3.492,0.721-5.74,4.187-4.992,7.7l3.703,17.339c0.721,3.496,4.181,5.741,7.695,4.99l15.079-3.191
					c3.51-0.747,7.719,1.212,9.414,4.347l13.301,19.175c2.33,2.708,2.624,7.397,0.668,10.415l-8.397,12.946
					c-1.942,2.996-1.078,7.037,1.915,8.979l14.872,9.646c2.995,1.942,7.036,1.082,8.98-1.914l8.395-12.946
					c1.957-3.019,6.368-4.658,9.781-3.64l22.909,4.307c3.551,0.268,7.091,3.334,7.833,6.84l3.237,15.07
					C174.318,285.247,177.761,287.479,181.273,286.729z M138.26,217.942c-24.008-15.567-30.85-47.639-15.31-71.598
					c15.569-24.01,47.642-30.846,71.649-15.277c23.987,15.557,30.82,47.624,15.249,71.633
					C194.311,226.661,162.244,233.499,138.26,217.942z">
						<animateTransform attributeName="transform" begin="7.5s" dur="6s" type="rotate" from="0 166.24 174.379" to="360 166.24 174.379" repeatCount="indefinite"/>
					</path>
				<path d="M395.237,241.645l-7.013-9.462c-1.451-1.893-4.157-2.293-6.061-0.866l-8.207,6.123
					c-1.898,1.421-5.028,1.412-6.903-0.063l-13.328-7.883c-2.134-0.978-3.604-3.74-3.267-6.076l1.476-10.142
					c0.359-2.347-1.319-4.563-3.618-4.877l-11.663-1.7c-2.343-0.365-4.545,1.272-4.895,3.648l-1.493,10.082
					c-0.339,2.341-2.553,4.583-4.851,4.907l-15.073,3.767c-2.213,0.831-5.198-0.072-6.597-1.985l-6.111-8.205
					c-1.421-1.874-4.149-2.265-6.026-0.852l-9.418,7.032c-1.915,1.397-2.309,4.125-0.884,6.027l6.098,8.216
					c1.421,1.902,1.387,4.975-0.012,6.856l-7.915,13.341c-0.967,2.158-3.728,3.631-6.109,3.283l-10.096-1.462
					c-2.348-0.362-4.564,1.243-4.882,3.612l-1.756,11.617c-0.306,2.396,1.32,4.563,3.667,4.926l10.148,1.51
					c2.329,0.297,4.548,2.523,4.878,4.857l3.771,14.998c0.816,2.262-0.043,5.258-1.973,6.627l-8.231,6.129
					c-1.903,1.427-2.278,4.114-0.84,6.048l6.991,9.403c1.433,1.936,4.139,2.335,6.037,0.908l8.207-6.117
					c1.903-1.427,5.03-1.417,6.895,0.031l13.338,7.913c2.136,0.975,3.604,3.737,3.275,6.072l-1.482,10.146
					c-0.36,2.348,1.295,4.505,3.64,4.869l11.64,1.706c2.344,0.363,4.534-1.297,4.864-3.639l1.516-10.152
					c0.329-2.337,2.553-4.549,4.893-4.856l15.011-3.74c2.245-0.847,5.217,0.027,6.627,1.969l6.098,8.146
					c1.436,1.936,4.163,2.326,6.042,0.911l9.449-7.041c1.868-1.416,2.272-4.115,0.874-6.029l-6.111-8.204
					c-1.43-1.906-1.408-5.004-0.01-6.888l7.93-13.31c0.995-2.172,3.757-3.642,6.106-3.283l10.102,1.459
					c2.374,0.351,4.564-1.312,4.896-3.648l1.711-11.637c0.358-2.349-1.294-4.506-3.635-4.869l-10.158-1.506
					c-2.351-0.357-4.543-2.523-4.846-4.869l-3.767-15.064c-0.851-2.18,0.039-5.19,1.941-6.616l8.217-6.089
					C396.259,246.248,396.627,243.53,395.237,241.645z M358.506,303.039c-11.814,14.869-33.46,17.332-48.291,5.499
					c-14.831-11.831-17.298-33.484-5.469-48.286c11.842-14.857,33.456-17.329,48.32-5.492
					C367.865,266.589,370.364,288.247,358.506,303.039z">
						<animateTransform attributeName="transform" begin="7.5s" dur="6s" type="rotate" from="360 331.619 281.837" to="0 331.619 281.837" repeatCount="indefinite"/>
					</path>
					<animate attributeName="fill"
                                        begin="7s" dur=".5s"  from="rgba(0,195,211,0)" to="rgba(0,195,211,1)"
                                        fill="freeze"/>
			</g>
			<polyline id="lineToCloudOne" stroke-linejoin="round" fill="none" stroke="#FFFFFF" stroke-width="3" stroke-miterlimit="10" points="183.324,276.699
	183.324,322.212 230.99,322.212 230.99,340.212 "/>
			<g id="cloudOne">
				<path id="cloud1shadow" fill="none" d="M227.305,341.537c-7.788,0-14.106,6.317-14.106,14.104c0,1.688,0.345,3.295,0.889,4.792
					c-0.292-0.034-0.583-0.086-0.889-0.086c-5.19,0-9.399,6.547-9.399,11.742c0,5.191,4.209,11.759,9.399,11.759h56.411
					c5.185,0,9.402-6.568,9.402-11.759c0-4.51-3.193-10.625-7.436-11.54c1.699-2.816,2.733-6.077,2.733-9.611
					c0-10.376-8.422-18.801-18.808-18.801c-7.728,0-14.293,4.697-17.172,11.38l-9.612-1.906
					C228.253,341.565,227.783,341.537,227.305,341.537z">
					<animate attributeName="fill"
                                        begin="4s" dur=".5s"  from="rgba(0,95,117,0)" to="rgba(0,95,117,1)"
                                        fill="freeze"/>
				</path>
				<path id="cloud1" fill="none" d="M264.945,353.377c1.703-2.816,2.734-6.078,2.734-9.612c0-10.376-8.419-18.801-18.805-18.801
					c-8.627,0-15.823,5.844-18.033,13.775c-2.563-2.685-6.163-4.375-10.168-4.375c-7.787,0-14.104,6.317-14.104,14.104
					c0,1.688,0.345,3.295,0.888,4.793c-0.292-0.034-0.584-0.086-0.888-0.086c-5.19,0-9.399,6.548-9.399,11.742
					c0,5.191,4.209,11.76,9.399,11.76h56.409c5.188,0,9.406-6.569,9.406-11.76C272.385,360.405,269.189,354.291,264.945,353.377z">
					<animate attributeName="fill"
                                        begin="4s" dur=".5s"  from="rgba(255,255,255,0)" to="rgba(255,255,255,1)"
                                        fill="freeze"/>
				</path>
				<path id="server" fill="none" d="M223.815,343.103v6.46h1.304v1.33h24.535v-1.33h1.304v-6.46H223.815z M228.403,347.12h-1.629
					v-1.602h1.629V347.12z M231.117,347.12h-1.629v-1.602h1.629V347.12z M233.83,347.12h-1.627v-1.602h1.627V347.12z M245.313,347.12
					h-6.435v-1.602h6.406v1.602H245.313z M248.026,347.12h-1.63v-1.602h1.63V347.12z M223.815,352.792v6.459h1.304v1.331h24.535v-1.331
					h1.304v-6.459H223.815z M228.403,356.81h-1.629v-1.601h1.629V356.81z M231.117,356.81h-1.629v-1.601h1.629V356.81z M233.83,356.81
					h-1.627v-1.601h1.627V356.81z M245.313,356.81h-6.435v-1.601h6.406v1.601H245.313z M248.026,356.81h-1.63v-1.601h1.63V356.81z
					 M223.815,362.456v6.459h1.304v1.33h24.535v-1.33h1.304v-6.459H223.815z M228.403,366.5h-1.629v-1.601h1.629V366.5z M231.117,366.5
					h-1.629v-1.601h1.629V366.5z M233.83,366.5h-1.627v-1.601h1.627V366.5z M245.313,366.5h-6.435v-1.601h6.406v1.601H245.313z
					 M248.026,366.5h-1.63v-1.601h1.63V366.5z">
					 <animate attributeName="fill"
                                        begin="4s" dur=".5s"  from="rgba(0,95,117,0)" to="rgba(0,95,117,1)"
                                        fill="freeze"/>
				</path>
			</g>
			<polyline id="lineToPad" stroke-linejoin="round" fill="none" stroke="#FFFFFF" stroke-width="3" stroke-miterlimit="10" points="164.078,276.699 164.078,306.545 138.264,306.545 138.264,334.357 126.678,334.357 "/>
			<g id="pad_1_">
				<path id="padShadow" fill="none" d="M115.736,301.421H33.519c-6.044,0-10.941,4.897-10.941,10.939v58.342
					c0,6.041,4.897,10.938,10.941,10.938h82.218c6.044,0,10.941-4.897,10.941-10.938V312.36
					C126.678,306.318,121.78,301.421,115.736,301.421z">
					<animate attributeName="fill"
                                        begin="4.5s" dur=".5s"  from="rgba(0,95,117,0)" to="rgba(0,95,117,1)"
                                        fill="freeze"/>
				</path>
				<path id="pad" fill="none" d="M26.888,374.467c-6.043,0-10.94-4.897-10.94-10.938v-58.343c0-6.041,4.896-10.938,10.94-10.938
					h82.219c6.043,0,10.941,4.897,10.941,10.938v58.343c0,6.041-4.898,10.938-10.941,10.938H26.888z">
					<animate attributeName="fill"
                                        begin="4.5s" dur=".5s"  from="rgba(169,65,88,0)" to="rgba(169,65,88,1)"
                                        fill="freeze"/>
				</path>
				<path id="padCon" fill="none" d="M23.934,302.39c0-0.937,0.723-1.699,1.617-1.699h82.335c0.89,0,1.614,0.762,1.614,1.699v63.935
					c0,0.938-0.725,1.699-1.614,1.699H25.551c-0.894,0-1.617-0.761-1.617-1.699V302.39z">
					<animate attributeName="fill"
                                        begin="4.5s" dur=".5s"  from="rgba(255,255,255,0)" to="rgba(255,255,255,1)"
                                        fill="freeze"/>
				</path>
				<path id="Notice" fill="none" d="M66.022,340.23c-0.727,0-1.215-0.485-1.215-1.212v-8.735c0-0.73,0.489-1.215,1.215-1.215
					c0.727,0,1.211,0.485,1.211,1.215v8.735C67.233,339.745,66.749,340.23,66.022,340.23z M66.506,346.296
					c0.243-0.243,0.485-0.728,0.485-0.973c0-0.485,0-0.728-0.242-0.97c-0.484-0.484-1.212-0.484-1.697,0
					c-0.245,0.243-0.245,0.728-0.245,0.97c0,0.488,0,0.73,0.245,0.973c0.244,0.242,0.727,0.242,0.97,0.242
					C66.265,346.538,66.749,346.538,66.506,346.296z M85.673,350.904c1.215-1.939,1.215-4.367,0-6.309l-14.315-24.989
					c-0.969-1.939-3.154-3.154-5.335-3.154c-2.185,0-4.125,1.215-5.339,3.154l-14.315,24.989c-1.211,1.942-1.211,4.369,0,6.309
					c0.973,1.942,3.154,3.153,5.338,3.153h28.631C82.76,354.058,84.704,352.846,85.673,350.904z M69.417,321.061l14.315,24.993
					c0.727,1.212,0.727,2.669,0,3.881c-0.486,1.212-1.699,1.942-3.156,1.942H51.706c-1.212,0-2.427-0.73-3.154-1.942
					c-0.728-1.212-0.728-2.669,0-3.881l14.316-24.993c0.484-1.211,1.696-1.939,3.154-1.939
					C67.478,319.122,68.69,319.849,69.417,321.061z">
					<animate attributeName="fill"
                                        begin="4.5s" dur=".5s"  from="rgba(169,65,88,0)" to="rgba(169,65,88,1)"
                                        fill="freeze"/>
				</path>
				<path id="padButton" fill="none" d="M114.476,336.465c-1.164,0-2.107-0.941-2.107-2.107c0-1.163,0.943-2.108,2.107-2.108
					c1.168,0,2.113,0.945,2.113,2.108C116.589,335.524,115.644,336.465,114.476,336.465z">
					<animate attributeName="fill"
                                        begin="4.5s" dur=".5s"  from="rgba(228,234,247,0)" to="rgba(228,234,247,1)"
                                        fill="freeze"/>
				</path>
			</g>
			<polyline id="lineToCloudTwo" stroke-linejoin="round" fill="none" stroke="#FFFFFF" stroke-width="3" stroke-miterlimit="10" points="142.705,198.78 130.613,198.78 130.613,219.903 102.351,219.903 "/>
			<g id="cloudTwo">
				<path id="cloud2Shadow" fill="none" d="M99.37,249.61c6.56,0,11.898-8.307,11.898-14.874c0-5.704-4.042-13.44-9.408-14.595
					c2.15-3.563,3.455-7.69,3.455-12.16c0-13.126-10.649-23.784-23.786-23.784c-10.91,0-20.014,7.393-22.813,17.425
					c-3.241-3.396-7.796-5.535-12.86-5.535c-9.85,0-17.841,7.991-17.841,17.844c0,2.133,0.437,4.167,1.124,6.063
					c-0.369-0.043-0.738-0.111-1.124-0.111c-6.566,0-11.89,8.282-11.89,14.853c0,6.567,5.324,14.874,11.89,14.874H99.37z">
						<animate attributeName="fill"
                                        begin="5s" dur=".5s"  from="rgba(0,95,117,0)" to="rgba(0,95,117,1)"
                                        fill="freeze"/>
					</path>
				<path id="cloud2" fill="none" d="M95.23,212.967c2.15-3.563,3.458-7.69,3.458-12.161c0-13.125-10.654-23.783-23.789-23.783
					c-10.91,0-20.012,7.393-22.813,17.425c-3.24-3.396-7.796-5.535-12.858-5.535c-9.852,0-17.841,7.991-17.841,17.844
					c0,2.133,0.436,4.167,1.123,6.063c-0.368-0.043-0.738-0.11-1.123-0.11c-6.567,0-11.892,8.282-11.892,14.853
					c0,6.567,5.325,14.874,11.892,14.874h71.354c6.56,0,11.899-8.307,11.899-14.874C104.641,221.859,100.597,214.123,95.23,212.967z">
						<animate attributeName="fill"
                                        begin="5s" dur=".5s"  from="rgba(255,255,255,0)" to="rgba(255,255,255,1)"
                                        fill="freeze"/>
					</path>
				<path id="routes" fill="none" d="M47.323,227.356h-1.831v-1.744h1.829v1.744H47.323z M50.981,225.612h-1.829v1.744h1.829
					V225.612z M54.638,225.612H52.81v1.744h1.829V225.612z M58.296,225.612h-1.829v1.744h1.829V225.612z M75.176,220.376v1.752h3.656
					v8.938h-3.656v1.739h-3.662v-1.739H49.152v1.739h-3.66v-1.739h-3.658v-8.938h3.658v-1.752h-3.658v-8.71h36.998v8.713
					L75.176,220.376L75.176,220.376z M77.007,218.638v-5.232H43.664v5.232H77.007z M43.664,223.871v5.451h33.341v-5.451H43.664z
					 M71.515,220.376H49.152v1.752h22.362V220.376z M45.493,216.894h1.829v-1.739h-1.829V216.894z M49.152,216.894h1.829v-1.739h-1.829
					V216.894z M52.81,216.894h1.829v-1.739H52.81V216.894z M56.467,216.894h1.829v-1.739h-1.829V216.894z M73.347,216.894h1.83v-1.739
					h-1.83V216.894z M69.688,216.894h1.826v-1.739h-1.826V216.894z M71.515,227.57h-0.113v-1.958h3.775v1.958H71.515L71.515,227.57z
					 M72.432,207.874c-0.484-0.001-0.876-0.394-0.876-0.878c0-0.268,0.122-0.509,0.311-0.67c1.12-0.945,1.824-2.347,1.824-3.914
					c0-1.413-0.572-2.692-1.5-3.619c-0.16-0.159-0.258-0.378-0.258-0.621c0-0.485,0.396-0.879,0.88-0.879
					c0.243,0,0.463,0.098,0.623,0.258c1.241,1.243,2.01,2.96,2.01,4.857c0,2.106-0.948,3.991-2.439,5.251
					c-0.161,0.136-0.357,0.214-0.573,0.214H72.432L72.432,207.874z M69.641,206.722c0.207,0,0.396-0.068,0.55-0.19
					c1.219-0.971,1.992-2.457,1.992-4.121c0-1.446-0.583-2.756-1.528-3.707c-0.157-0.16-0.378-0.259-0.62-0.259
					c-0.244,0-0.462,0.099-0.621,0.259c-0.159,0.158-0.257,0.377-0.257,0.618c0,0.242,0.098,0.46,0.256,0.619
					c0.63,0.633,1.02,1.505,1.02,2.468c0,1.11-0.517,2.1-1.324,2.741c-0.21,0.167-0.339,0.414-0.339,0.692
					c0,0.207,0.072,0.397,0.191,0.546c0.161,0.203,0.408,0.333,0.685,0.334H69.641z M58.061,207.874c0.262,0,0.502-0.111,0.669-0.314
					c0.13-0.151,0.209-0.349,0.209-0.566c0-0.268-0.121-0.507-0.311-0.667c-1.119-0.939-1.825-2.337-1.825-3.9c0-0.005,0-0.01,0-0.016
					c0-1.371,0.531-2.655,1.496-3.617c0.158-0.16,0.255-0.378,0.255-0.621c0-0.242-0.097-0.462-0.255-0.621
					c-0.159-0.157-0.378-0.255-0.621-0.255s-0.461,0.098-0.621,0.255c-1.294,1.294-2.009,3.021-2.009,4.86c0,0.005,0,0.013,0,0.021
					c0,2.098,0.947,3.975,2.437,5.227c0.161,0.137,0.356,0.215,0.57,0.215C58.057,207.874,58.059,207.874,58.061,207.874
					L58.061,207.874z M60.841,206.722c0.002,0,0.004,0,0.007,0c0.483,0,0.875-0.392,0.875-0.875c0-0.28-0.132-0.528-0.335-0.688
					c-0.814-0.643-1.329-1.627-1.329-2.731c0-0.005,0-0.009,0-0.014c0-0.932,0.361-1.81,1.02-2.47c0.16-0.159,0.257-0.377,0.257-0.619
					c0-0.242-0.098-0.461-0.257-0.618c-0.158-0.161-0.378-0.261-0.621-0.261c-0.243,0-0.462,0.1-0.621,0.26
					c-0.991,0.988-1.533,2.305-1.533,3.708c0,0.008,0,0.018,0,0.028c0,1.658,0.777,3.134,1.987,4.084
					C60.448,206.651,60.637,206.722,60.841,206.722L60.841,206.722z M64.367,205.675v5.991h1.756v-5.991H64.367z M62.962,202.586
					c0.002-1.26,1.024-2.281,2.285-2.281s2.282,1.023,2.282,2.284c0,0,0,0.001,0,0.002c0,1.26-1.023,2.28-2.282,2.28
					c-1.261,0-2.285-1.022-2.285-2.283C62.962,202.588,62.962,202.586,62.962,202.586 M65.244,205.745
					c1.706-0.052,3.07-1.446,3.07-3.16s-1.364-3.109-3.065-3.159c-1.683,0.086-3.009,1.468-3.009,3.159s1.326,3.072,2.997,3.159
					L65.244,205.745z M65.244,201.18c0.75,0.034,1.345,0.65,1.345,1.405s-0.594,1.371-1.341,1.404c-0.779,0-1.409-0.629-1.409-1.404
					C63.838,201.809,64.468,201.18,65.244,201.18L65.244,201.18z">
						<animate attributeName="fill"
                                        begin="5s" dur=".5s"  from="rgba(0,95,117,0)" to="rgba(0,95,117,1)"
                                        fill="freeze"/>
					</path>
			</g>
			<polyline id="lineToCloudThree" stroke-linejoin="round" fill="none" stroke="#FFFFFF" stroke-width="3" stroke-miterlimit="10" points="220.49,147.315 220.49,136.345 233.814,136.345 233.814,129.418 "/>
			<g id="cloudThree">
				<path id="cloud3Shadow" fill="none" d="M213.206,129.418h56.409c5.191,0,9.396-6.565,9.396-11.757
					c0-5.193-4.205-11.744-9.396-11.744c-0.306,0-0.599,0.056-0.889,0.089c0.541-1.5,0.889-3.104,0.889-4.792
					c0-7.79-6.32-14.106-14.106-14.106c-4.005,0-7.604,1.69-10.165,4.375c-2.214-7.931-9.408-13.775-18.035-13.775
					c-10.384,0-18.806,8.424-18.806,18.801c0,3.534,1.033,6.799,2.733,9.615c-4.244,0.912-7.438,7.029-7.438,11.539
					C203.799,122.853,208.018,129.418,213.206,129.418z">
						<animate attributeName="fill"
                                        begin="5.5s" dur=".5s"  from="rgba(0,95,117,0)" to="rgba(0,95,117,1)"
                                        fill="freeze"/>
					</path>
				<path id="cloud3" fill="none" d="M204.605,98.949c-1.699-2.816-2.731-6.081-2.731-9.615c0-10.376,8.421-18.801,18.806-18.801
					c8.624,0,15.823,5.845,18.035,13.776c2.562-2.685,6.162-4.375,10.168-4.375c7.785,0,14.103,6.317,14.103,14.107
					c0,1.687-0.347,3.292-0.891,4.792c0.292-0.034,0.584-0.089,0.891-0.089c5.19,0,9.399,6.55,9.399,11.744
					c0,5.192-4.209,11.757-9.399,11.757h-56.408c-5.188,0-9.407-6.565-9.407-11.757C197.17,105.978,200.364,99.86,204.605,98.949z">
						<animate attributeName="fill"
                                        begin="5.5s" dur=".5s"  from="rgba(255,255,255,0)" to="rgba(255,255,255,1)"
                                        fill="freeze"/>
					</path>
				<path id="file2" fill="none" d="M251.462,103.515c-0.067-0.358-0.245-0.704-0.525-0.979l-3.556-3.555
					c-0.293-0.296-0.665-0.472-1.046-0.537l-0.004,0.007l-0.029-0.025h-5.369c-1.053,0-1.909,0.855-1.909,1.909v12.888
					c0.069,0.995,0.899,1.813,1.909,1.813h8.634c1.056,0,1.912-0.856,1.912-1.909v-9.562L251.462,103.515L251.462,103.515z
					 M246.864,100.251l2.755,2.758h-2.09c-0.366,0-0.665-0.3-0.665-0.668V100.251L246.864,100.251z M250.217,113.13
					c0,0.36-0.293,0.644-0.652,0.648h-8.632c-0.355-0.005-0.645-0.289-0.648-0.648v-12.792c0.004-0.356,0.293-0.645,0.648-0.645h4.671
					v2.648c0,1.067,0.856,1.929,1.926,1.929h2.688V113.13L250.217,113.13z">
						<animate attributeName="fill"
                                        begin="5.5s" dur=".5s"  from="rgba(0,95,117,0)" to="rgba(0,95,117,1)"
                                        fill="freeze"/>
					</path>
				<path id="file1" fill="none" d="M233.787,95.784c-0.116-0.598-0.409-1.176-0.878-1.634l-5.94-5.941
					c-0.491-0.494-1.112-0.788-1.749-0.896l-0.009,0.011l-0.047-0.042h-8.971c-1.76,0-3.191,1.43-3.191,3.19v21.535
					c0.115,1.662,1.502,3.03,3.191,3.03h14.427c1.763,0,3.194-1.43,3.194-3.19V95.871L233.787,95.784L233.787,95.784z M226.104,90.332
					l4.605,4.607h-3.493c-0.611,0-1.112-0.5-1.112-1.117V90.332L226.104,90.332z M231.705,111.85c0,0.601-0.492,1.076-1.087,1.083
					h-14.426c-0.593-0.007-1.079-0.482-1.084-1.083V90.476c0.005-0.595,0.491-1.077,1.084-1.077h7.806v4.424
					c0,1.784,1.432,3.223,3.218,3.223h4.489V111.85L231.705,111.85z M228.85,107.057h-10.878c-0.592,0-1.064,0.472-1.064,1.055
					c0,0.573,0.473,1.051,1.064,1.051h10.881c0.572,0,1.051-0.478,1.051-1.051C229.903,107.529,229.425,107.057,228.85,107.057
					L228.85,107.057z M228.85,102.801h-10.878c-0.592,0-1.064,0.478-1.064,1.063c0,0.581,0.473,1.049,1.064,1.049h10.878
					c0.573,0,1.05-0.468,1.05-1.049C229.903,103.279,229.425,102.801,228.85,102.801z M226.504,98.555h-8.744
					c-0.461,0-0.851,0.48-0.851,1.053c0,0.587,0.39,1.063,0.851,1.063h8.745c0.464,0,0.84-0.475,0.84-1.063
					C227.345,99.035,226.969,98.555,226.504,98.555L226.504,98.555z">
						<animate attributeName="fill"
                                        begin="5.5s" dur=".5s"  from="rgba(0,95,117,0)" to="rgba(0,95,117,1)"
                                        fill="freeze"/>
					</path>
			</g>
			<polyline id="lineToNoteBook" stroke-linejoin="round" fill="none" stroke="#FFFFFF" stroke-width="3" stroke-miterlimit="10" points="294.324,147.315 294.324,133.648 309.491,133.648 309.491,93.045 343.193,93.045 "/>
			<g id="NoteBook">
				<path fill="none" d="M357.586,135.837h89.1c4.29,0,7.766-1.424,7.766-5.713V81.832c0-4.289-3.476-7.766-7.766-7.766h-89.1
					c-4.286,0-7.766,3.477-7.766,7.766v48.292C349.82,134.413,353.3,135.837,357.586,135.837z">
						<animate attributeName="fill"
                                        begin="6s" dur=".5s"  from="rgba(0,95,117,0)" to="rgba(0,95,117,1)"
                                        fill="freeze"/>
					</path>
				<path fill="none" d="M462.787,139.562c0-1.4-1.165-2.535-2.606-2.535H343.964c-1.438,0-2.604,1.135-2.604,2.535
					c0,1.398,1.166,2.534,2.604,2.534h116.217C461.622,142.095,462.787,140.959,462.787,139.562z">
						<animate attributeName="fill"
                                        begin="6s" dur=".5s"  from="rgba(0,95,117,0)" to="rgba(0,95,117,1)"
                                        fill="freeze"/>
					</path>
				<path fill="none" d="M447.821,122.95c0,4.289-3.477,5.713-7.763,5.713h-89.1c-4.289,0-7.766-1.424-7.766-5.713V74.659
					c0-4.289,3.477-7.764,7.766-7.764h89.1c4.286,0,7.763,3.475,7.763,7.764V122.95z">
						<animate attributeName="fill"
                                        begin="6s" dur=".5s"  from="rgba(236,133,88,0)" to="rgba(236,133,88,1)"
                                        fill="freeze"/>
					</path>
				<path fill="none" d="M441.906,117.035c0,1.531-1.239,2.773-2.773,2.773h-87.251c-1.532,0-2.772-1.243-2.772-2.773V75.982
					c0-1.535,1.24-2.774,2.772-2.774h87.251c1.534,0,2.773,1.239,2.773,2.774V117.035z">
						<animate attributeName="fill"
                                        begin="6s" dur=".5s"  from="rgba(255,255,255,0)" to="rgba(255,255,255,1)"
                                        fill="freeze"/>
					</path>
				<path fill="none" d="M456.156,133.958c0,1.399-1.166,2.535-2.604,2.535H337.337c-1.442,0-2.608-1.136-2.608-2.535l0,0
					c0-1.399,1.166-2.534,2.608-2.534h116.215C454.99,131.425,456.156,132.56,456.156,133.958L456.156,133.958z">
						<animate attributeName="fill"
                                        begin="6s" dur=".5s"  from="rgba(236,133,88,0)" to="rgba(236,133,88,1)"
                                        fill="freeze"/>
					</path>
				<path id="question" fill="none" d="M396.531,99.48c-0.653,0-1.089-0.436-1.089-1.091c0-1.964,0.871-3.925,2.618-5.236
					c0.87-0.654,1.089-1.525,0.87-2.614c-0.217-0.875-0.87-1.746-1.96-1.964c-0.875-0.218-1.528,0-2.182,0.436
					c-0.656,0.436-0.875,1.308-0.875,1.961c0,0.655-0.436,1.091-1.088,1.091c-0.656,0-1.092-0.436-1.092-1.091
					c0-1.526,0.656-2.833,1.744-3.707c1.092-0.872,2.617-1.308,3.925-0.872c1.746,0.435,3.274,1.746,3.71,3.706
					c0.436,1.746-0.218,3.492-1.747,4.798c-1.088,0.873-1.963,2.182-1.963,3.49C397.621,99.044,397.186,99.48,396.531,99.48z
					 M397.186,105.585c0.218,0,0.436-0.436,0.436-0.653c0-0.436-0.218-0.655-0.436-0.871c-0.437-0.436-1.09-0.436-1.525,0
					c-0.218,0.216-0.218,0.653-0.218,0.871c0,0.218,0,0.436,0.218,0.653c0.218,0.22,0.653,0.436,0.871,0.436
					S397.186,105.805,397.186,105.585z M415.069,96.209c0-10.25-8.286-18.54-18.538-18.54c-10.249,0-18.537,8.29-18.537,18.54
					c0,10.249,8.288,18.537,18.537,18.537C406.783,114.746,415.069,106.458,415.069,96.209z M412.888,96.209
					c0,8.94-7.412,16.356-16.356,16.356c-8.939,0-16.354-7.416-16.354-16.356c0-8.943,7.415-16.358,16.354-16.358
					C405.476,79.851,412.888,87.266,412.888,96.209z">
						<animate attributeName="fill"
                                        begin="6s" dur=".5s"  from="rgba(236,133,88,0)" to="rgba(236,133,88,1)"
                                        fill="freeze"/>
					</path>
			</g>
			<polyline id="lineToCloudFour" stroke-linejoin="round" fill="none" stroke="#FFFFFF" stroke-width="3" stroke-miterlimit="10" points="331.633,226.953 342.615,226.953 342.615,213.462 374.49,213.462 "/>
			<g id="couldFour">
				<path fill="none" d="M465.984,234.736c0-6.571-5.324-14.853-11.89-14.853c-0.386,0-0.753,0.067-1.122,0.111
					c0.685-1.896,1.122-3.929,1.122-6.063c0-9.853-7.992-17.844-17.841-17.844c-5.065,0-9.621,2.139-12.86,5.535
					c-2.798-10.032-11.9-17.425-22.811-17.425c-13.14,0-23.789,10.657-23.789,23.784c0,4.47,1.306,8.597,3.455,12.16
					c-5.365,1.155-9.406,8.891-9.406,14.595c0,6.567,5.336,14.874,11.899,14.874h71.353C460.66,249.61,465.984,241.303,465.984,234.736
					z">
						<animate attributeName="fill"
                                        begin="6.5s" dur=".5s"  from="rgba(0,95,117,0)" to="rgba(0,95,117,1)"
                                        fill="freeze"/>
					</path>
				<path fill="none" d="M373.62,212.967c-2.151-3.563-3.455-7.69-3.455-12.161c0-13.125,10.649-23.783,23.786-23.783
					c10.911,0,20.014,7.393,22.812,17.425c3.24-3.396,7.796-5.535,12.862-5.535c9.847,0,17.84,7.991,17.84,17.844
					c0,2.133-0.436,4.167-1.122,6.063c0.367-0.043,0.735-0.11,1.122-0.11c6.566,0,11.89,8.282,11.89,14.853
					c0,6.567-5.323,14.874-11.89,14.874h-71.354c-6.564,0-11.898-8.307-11.898-14.874C364.213,221.859,368.255,214.123,373.62,212.967z
					">
						<animate attributeName="fill"
                                        begin="6.5s" dur=".5s"  from="rgba(255,255,255,0)" to="rgba(255,255,255,1)"
                                        fill="freeze"/>
					</path>
				<path id="route" fill="none" d="M428.931,231.382l-1.593-11.614c-0.028-1.542-1.292-2.789-2.84-2.789h-2.864v-20.492
					c0-0.39-0.316-0.707-0.706-0.707c-0.391,0-0.706,0.317-0.706,0.707v20.492h-10.66v-20.492c0-0.39-0.316-0.707-0.707-0.707
					s-0.707,0.317-0.707,0.707v20.492h-10.658v-20.492c0-0.39-0.317-0.707-0.707-0.707c-0.393,0-0.708,0.317-0.708,0.707v20.492h-3.455
					c-1.549,0-2.813,1.247-2.839,2.789l-1.595,11.614c-0.005,0.031-0.008,0.064-0.008,0.096c0,1.565,1.274,2.84,2.84,2.84h35.081
					c1.566,0,2.84-1.274,2.84-2.84C428.938,231.446,428.937,231.413,428.931,231.382L428.931,231.382z M391.187,219.916
					c0.004-0.032,0.007-0.064,0.007-0.096c0-0.787,0.639-1.426,1.426-1.426h31.879c0.787,0,1.426,0.64,1.426,1.426
					c0,0.032,0.002,0.064,0.008,0.096l1.111,8.1h-36.969L391.187,219.916L391.187,219.916z M426.099,232.904h-35.081
					c-0.771,0-1.401-0.617-1.424-1.383l0.287-2.092h37.354l0.288,2.092C427.501,232.288,426.869,232.904,426.099,232.904
					L426.099,232.904z M420.854,226.625h1.704c0.653,0,1.185-0.53,1.185-1.185c0-0.654-0.531-1.185-1.185-1.185h-1.704
					c-0.653,0-1.185,0.53-1.185,1.185S420.2,226.625,420.854,226.625L420.854,226.625z M420.854,222.625h1.704
					c0.653,0,1.185-0.53,1.185-1.185s-0.531-1.186-1.185-1.186h-1.704c-0.653,0-1.185,0.531-1.185,1.186
					C419.669,222.095,420.2,222.625,420.854,222.625L420.854,222.625z">
						<animate attributeName="fill"
                                        begin="6.5s" dur=".5s"  from="rgba(0,95,117,0)" to="rgba(0,95,117,1)"
                                        fill="freeze"/>
					</path>
			</g>
			<g id="computer">
				<rect class="stepone" x="216.142" y="276.699" fill="none" stroke="#CECECE" stroke-miterlimit="10" width="42.058" height="13.215">
					<animate attributeName="fill"
                            begin="1.5s" dur=".5s"  from="rgba(246,246,246,0)" to="rgba(246,246,246,1)"
                            fill="freeze"/>
				</rect>
				<path class="stepone" fill="none" stroke="#CECECE" stroke-miterlimit="10" d="M331.633,262.679c0,7.746-6.277,14.02-14.019,14.02H156.724
					c-7.745,0-14.019-6.274-14.019-14.02V161.335c0-7.744,6.273-14.02,14.019-14.02h160.891c7.741,0,14.019,6.276,14.019,14.02V262.679
					z">
						<animate attributeName="fill"
                            begin="1.5s" dur=".5s"  from="rgba(246,246,246,0)" to="rgba(246,246,246,1)"
                            fill="freeze"/>
				</path>
				<path class="stepone" fill="none" stroke="#CECECE" stroke-miterlimit="10" d="M320.954,251.998c0,2.766-2.242,5.007-5.008,5.007H158.392
					c-2.764,0-5.008-2.242-5.008-5.007v-88.271c0-2.768,2.244-5.008,5.008-5.008h157.555c2.766,0,5.008,2.241,5.008,5.008V251.998z">
						<animate attributeName="fill"
                            begin="1.5s" dur=".5s"  from="rgba(255,255,255,0)" to="rgba(255,255,255,1)"
                            fill="freeze"/>
				</path>
				<path class="stepone" fill="none" stroke="#CECECE" stroke-miterlimit="10" d="M279.563,299.763v-4.84c0-2.764-2.244-5.009-5.009-5.009h-74.771
					c-2.764,0-5.008,2.245-5.008,5.009v4.84H279.563z">
						<animate attributeName="fill"
                            begin="1.5s" dur=".5s"  from="rgba(246,246,246,0)" to="rgba(246,246,246,1)"
                            fill="freeze"/>
				</path>
			</g>
			<g id="digitalWorld">
				<path fill="none" d="M194.098,174.828h4.922c1.417,0,2.724,0.203,3.911,0.608c1.188,0.403,2.201,0.961,3.04,1.672
					c0.841,0.712,1.499,1.563,1.968,2.557c0.466,0.994,0.701,2.071,0.701,3.234s-0.235,2.244-0.701,3.236
					c-0.469,0.996-1.127,1.846-1.968,2.557c-0.839,0.711-1.852,1.268-3.04,1.673c-1.188,0.405-2.494,0.604-3.911,0.604h-4.922V174.828z
					 M199.259,187.823c0.807,0,1.542-0.115,2.206-0.343c0.663-0.223,1.232-0.546,1.71-0.97c0.475-0.419,0.845-0.932,1.101-1.537
					c0.261-0.604,0.391-1.299,0.391-2.074s-0.13-1.465-0.391-2.071c-0.256-0.606-0.626-1.119-1.101-1.541
					c-0.478-0.42-1.047-0.741-1.71-0.967c-0.664-0.228-1.399-0.341-2.206-0.341h-1.184v9.844H199.259z">
					<animate attributeName="fill"
                            begin="2s" dur=".1s"  from="rgba(0,195,211,0)" to="rgba(0,195,211,1)"
                            fill="freeze"/>
				</path>
				<path fill="none" d="M214.989,190.97h-3.975v-16.142h3.975V190.97z">
					<animate attributeName="fill"
                            begin="2.1s" dur=".1s"  from="rgba(0,195,211,0)" to="rgba(0,195,211,1)"
                            fill="freeze"/>
				</path>
				<path fill="none" d="M226.38,174.538c2.102,0,3.863,0.331,5.284,0.986l-0.534,2.991c-1.391-0.551-2.844-0.824-4.363-0.824
					c-0.807,0-1.533,0.104-2.177,0.313c-0.651,0.208-1.202,0.537-1.662,0.983c-0.462,0.444-0.819,1.009-1.067,1.696
					c-0.252,0.687-0.375,1.508-0.375,2.459c0,1.682,0.439,2.948,1.32,3.804c0.879,0.858,2.176,1.286,3.888,1.286
					c0.374,0,0.73-0.029,1.068-0.084c0.337-0.057,0.622-0.127,0.851-0.208v-4.506h3.561v6.656c-0.693,0.342-1.581,0.624-2.654,0.842
					c-1.077,0.218-2.192,0.33-3.356,0.33c-1.354,0-2.567-0.198-3.637-0.595c-1.066-0.393-1.972-0.95-2.715-1.662
					c-0.741-0.707-1.311-1.562-1.709-2.554c-0.395-0.993-0.593-2.099-0.593-3.31c0-1.293,0.198-2.468,0.593-3.525
					c0.398-1.06,0.975-1.965,1.734-2.716c0.758-0.75,1.688-1.333,2.786-1.744S224.975,174.538,226.38,174.538z">
					<animate attributeName="fill"
                            begin="2.2s" dur=".1s"  from="rgba(0,195,211,0)" to="rgba(0,195,211,1)"
                            fill="freeze"/>
				</path>
				<path fill="none" d="M239.175,190.97h-3.972v-16.142h3.972V190.97z">
					<animate attributeName="fill"
                            begin="2.3s" dur=".1s"  from="rgba(0,195,211,0)" to="rgba(0,195,211,1)"
                            fill="freeze"/>
				</path>
				<path fill="none" d="M253.864,174.828v3.151h-4.338v12.991h-3.977v-12.991h-4.338v-3.151H253.864z">
					<animate attributeName="fill"
                            begin="2.4s" dur=".1s"  from="rgba(0,195,211,0)" to="rgba(0,195,211,1)"
                            fill="freeze"/>
				</path>
				<path fill="none" d="M264.673,187.845h-6.178l-0.996,3.125H253.4l6.014-16.142h4.362l6.012,16.142h-4.099L264.673,187.845z
					 M259.51,184.693h4.145l-2.06-6.809L259.51,184.693z">
					<animate attributeName="fill"
                            begin="2.5s" dur=".1s"  from="rgba(0,195,211,0)" to="rgba(0,195,211,1)"
                            fill="freeze"/>
				</path>
				<path fill="none" d="M275.625,174.828v12.995h5.941v3.146h-9.916v-16.142H275.625z">
					<animate attributeName="fill"
                            begin="2.6s" dur=".1s"  from="rgba(0,195,211,0)" to="rgba(0,195,211,1)"
                            fill="freeze"/>
				</path>
				<path fill="none" d="M210.498,210.784l2.595-11.64h4.233l-4.636,16.781h-4.209l-3.402-12.599l-3.399,12.599h-4.205
					l-4.638-16.781h4.23l2.6,11.64l3.123-11.64h4.583L210.498,210.784z">
					<animate attributeName="fill"
                            begin="2.7s" dur=".1s"  from="rgba(0,195,211,0)" to="rgba(0,195,211,1)"
                            fill="freeze"/>
				</path>
				<path fill="none" d="M235.466,207.534c0,1.193-0.194,2.313-0.582,3.363c-0.385,1.052-0.943,1.971-1.676,2.758
					c-0.731,0.792-1.624,1.418-2.68,1.879c-1.062,0.462-2.267,0.694-3.63,0.694c-1.36,0-2.574-0.231-3.641-0.694
					c-1.068-0.46-1.965-1.087-2.694-1.879c-0.734-0.787-1.286-1.706-1.663-2.758c-0.379-1.049-0.567-2.169-0.567-3.363
					c0-1.191,0.188-2.312,0.567-3.364c0.377-1.049,0.929-1.966,1.663-2.756c0.729-0.789,1.626-1.418,2.694-1.879
					c1.066-0.46,2.28-0.69,3.641-0.69c1.363,0,2.568,0.229,3.63,0.69c1.056,0.461,1.948,1.09,2.68,1.879
					c0.732,0.79,1.291,1.707,1.676,2.756C235.271,205.222,235.466,206.342,235.466,207.534z M226.898,212.949
					c0.722,0,1.363-0.132,1.915-0.4c0.555-0.269,1.02-0.643,1.4-1.12c0.375-0.483,0.657-1.05,0.842-1.715
					c0.185-0.663,0.276-1.389,0.276-2.18c0-0.788-0.092-1.515-0.276-2.18c-0.185-0.663-0.467-1.234-0.842-1.711
					c-0.381-0.478-0.846-0.853-1.4-1.123c-0.552-0.267-1.193-0.4-1.915-0.4c-0.738,0-1.383,0.133-1.929,0.4
					c-0.545,0.27-1.008,0.646-1.384,1.123c-0.378,0.478-0.661,1.049-0.845,1.711c-0.187,0.665-0.275,1.392-0.275,2.18
					c0,0.792,0.089,1.518,0.275,2.18c0.184,0.665,0.467,1.231,0.845,1.715c0.376,0.478,0.839,0.852,1.384,1.12
					C225.516,212.817,226.16,212.949,226.898,212.949z">
					<animate attributeName="fill"
                            begin="2.8s" dur=".1s"  from="rgba(0,195,211,0)" to="rgba(0,195,211,1)"
                            fill="freeze"/>
				</path>
				<path fill="none" d="M250.603,204.46c0,1.124-0.313,2.112-0.945,2.951c-0.629,0.837-1.505,1.473-2.633,1.913l5.521,6.601h-5.091
					l-4.611-5.822h-0.758v5.822h-4.128v-16.781h5.339c1.041,0,2.007,0.109,2.899,0.33c0.888,0.216,1.661,0.546,2.318,0.982
					c0.652,0.438,1.165,0.983,1.533,1.649C250.419,202.77,250.603,203.553,250.603,204.46z M246.624,204.542
					c0-0.762-0.295-1.319-0.884-1.679c-0.587-0.362-1.409-0.544-2.467-0.544h-1.188v4.713h1.01c1.106,0,1.973-0.217,2.596-0.654
					C246.313,205.938,246.624,205.327,246.624,204.542z">
					<animate attributeName="fill"
                            begin="2.9s" dur=".1s"  from="rgba(0,195,211,0)" to="rgba(0,195,211,1)"
                            fill="freeze"/>
				</path>
				<path fill="none" d="M258.188,199.145v13.504h6.173v3.277h-10.307v-16.781H258.188z">
					<animate attributeName="fill"
                            begin="3s" dur=".1s"  from="rgba(0,195,211,0)" to="rgba(0,195,211,1)"
                            fill="freeze"/>
				</path>
				<path fill="none" d="M266.448,199.145h5.115c1.479,0,2.835,0.212,4.07,0.632c1.235,0.418,2.286,1,3.158,1.735
					c0.879,0.741,1.557,1.625,2.043,2.658c0.487,1.034,0.731,2.155,0.731,3.364c0,1.21-0.244,2.332-0.731,3.363
					c-0.486,1.035-1.164,1.921-2.043,2.66c-0.872,0.739-1.923,1.316-3.158,1.735c-1.235,0.422-2.591,0.634-4.07,0.634h-5.115V199.145z
					 M271.817,212.648c0.838,0,1.602-0.117,2.289-0.353c0.691-0.234,1.283-0.57,1.777-1.01c0.497-0.432,0.878-0.967,1.147-1.596
					c0.267-0.63,0.401-1.35,0.401-2.156c0-0.805-0.135-1.525-0.401-2.153c-0.27-0.63-0.65-1.163-1.147-1.601
					c-0.494-0.437-1.086-0.773-1.777-1.003c-0.688-0.239-1.451-0.356-2.289-0.356h-1.232v10.228H271.817z">
					<animate attributeName="fill"
                            begin="3.1s" dur=".1s"  from="rgba(0,195,211,0)" to="rgba(0,195,211,1)"
                            fill="freeze"/>
				</path>
			</g>
			<g id="computerLine">
				<rect x="165.538" y="226.953" fill="#CEE5EE" width="0" height="3.792">
					<animate
                                attributeName="width"
                                attributeType="XML"
                                from="0"
                                to="139.554"
                                begin="3.1s" dur=".3s"
                                fill="freeze" />
				</rect>
				<rect x="165.538" y="235.525" fill="#CEE5EE" width="0" height="3.788">
					<animate
                                attributeName="width"
                                attributeType="XML"
                                from="0"
                                to="124.163"
                                begin="3.4s" dur=".3s"
                                fill="freeze" />
				</rect>
				<rect x="165.538" y="244.085" fill="#CEE5EE" width="0" height="3.789">
					<animate
                                attributeName="width"
                                attributeType="XML"
                                from="0"
                                to="139.554"
                                begin="3.7s" dur=".3s"
                                fill="freeze" />
				</rect>
			</g>

			</g>
		</svg>